<?xml version="1.0" encoding="utf-8"?>
<svg xmlns="http://www.w3.org/2000/svg" xmlns:xlink="http://www.w3.org/1999/xlink" version="1.1" viewBox="0 0 100 100">
<style type="text/css">
	.st0{fill:#8ED8F8;}
	.st1{fill:#0072BC;}
	.st2{fill:#F1F2F2;}
	.st3{fill:#CE181E;}
	.st4{fill:#FFCB05;}
	.st5{fill:#F2F2F2;}
	.st6{font-family:'MyriadPro-Regular';}
	.st7{font-size:30px;}
	.st8{font-size:26px;}
</style>
<g id="background">

	<g>
		<g>
			<rect x="25" y="0" class="st2" width="25" height="25"/>
			<rect x="0" y="0" class="st1" width="25" height="25"/>
			<rect x="25" y="25" class="st1" width="25" height="25"/>
			<rect x="0" y="25" class="st2" width="25" height="25"/>
		</g>
		<g>
			<rect x="75" y="0" class="st2" width="25" height="25"/>
			<rect x="50" y="0" class="st1" width="25" height="25"/>
			<rect x="75" y="25" class="st1" width="25" height="25"/>
			<rect x="50" y="25" class="st2" width="25" height="25"/>
		</g>
		<g>
			<rect x="25" y="50" class="st2" width="25" height="25"/>
			<rect x="0" y="50" class="st1" width="25" height="25"/>
			<rect x="25" y="75" class="st1" width="25" height="25"/>
			<rect x="0" y="75" class="st2" width="25" height="25"/>
		</g>
		<g>
			<rect x="75" y="50.6" class="st2" width="25" height="25"/>
			<rect x="50" y="50" class="st1" width="25" height="25"/>
			<rect x="75" y="75" class="st1" width="25" height="25"/>
			<rect x="50" y="75" class="st2" width="25" height="25"/>
		</g>
	</g>

</g>
</svg>